<svg enable-background="new 0 0 64 64" height="64" viewBox="0 0 64 64" width="64" xmlns="http://www.w3.org/2000/svg" xmlns:xlink="http://www.w3.org/1999/xlink"><linearGradient id="a" gradientUnits="userSpaceOnUse" x1="7.293" x2="56.9424" y1="32.333" y2="32.333"><stop offset="0" stop-color="#e5e2df"/><stop offset="0" stop-color="#ded9d6"/><stop offset=".063" stop-color="#cfcac9"/><stop offset=".1833" stop-color="#a8a4a7"/><stop offset=".264" stop-color="#8b878d"/><stop offset=".5225" stop-color="#f3f4f4"/><stop offset=".5842" stop-color="#e5e5e6"/><stop offset=".7027" stop-color="#c0bec0"/><stop offset=".8647" stop-color="#858085"/><stop offset=".8764" stop-color="#807b80"/><stop offset="1" stop-color="#d1d3d4"/><stop offset="1" stop-color="#a7a9ac"/></linearGradient><linearGradient id="b" gradientUnits="userSpaceOnUse" x1="32.1196" x2="32.1196" y1="66.6162" y2="13.2335"><stop offset="0" stop-color="#383d40"/><stop offset=".1391" stop-color="#3b4042"/><stop offset=".2331" stop-color="#44484a"/><stop offset=".3139" stop-color="#535758"/><stop offset=".3872" stop-color="#686b6b"/><stop offset=".4547" stop-color="#848583"/><stop offset=".5" stop-color="#9b9b98"/><stop offset=".5974" stop-color="#8c8d8b"/><stop offset=".7842" stop-color="#656868"/><stop offset="1" stop-color="#31373a"/></linearGradient><linearGradient id="c"><stop offset="0" stop-color="#fffbcc"/><stop offset=".1146" stop-color="#fbf2bb"/><stop offset=".3413" stop-color="#f0d98e"/><stop offset=".3708" stop-color="#eed688"/><stop offset=".6854" stop-color="#ebbb10"/><stop offset="1" stop-color="#ff922e"/></linearGradient><radialGradient id="d" cx="39.6338" cy="10.6353" gradientUnits="userSpaceOnUse" r="29.17" xlink:href="#c"/><radialGradient id="e" cx="32.1196" cy="32.1895" gradientUnits="userSpaceOnUse" r="20.5347" xlink:href="#c"/><linearGradient id="f"><stop offset="0" stop-color="#fffbcc"/><stop offset=".1417" stop-color="#eeefdd"/><stop offset=".3708" stop-color="#cad6ff"/><stop offset=".6854" stop-color="#00b2ef"/><stop offset="1" stop-color="#3d5bd8"/></linearGradient><radialGradient id="g" cx="41.541" cy="32.1895" gradientUnits="userSpaceOnUse" r="16.9697" xlink:href="#f"/><radialGradient id="h" cx="32.0054" cy="7.1807" gradientUnits="userSpaceOnUse" r="40.0932" xlink:href="#c"/><radialGradient id="i" cx="31.9961" cy="11.6768" gradientUnits="userSpaceOnUse" r="32.981" xlink:href="#f"/><radialGradient id="j" cx="49.1143" cy="11.6865" gradientTransform="matrix(-1 0 0 1 81.373 0)" gradientUnits="userSpaceOnUse" r="32.9819" xlink:href="#c"/><path d="m32.117 61.004c24.825-12.594 24.825-42.758 24.825-42.758-8.944-10.44-24.825-14.584-24.825-14.584s-15.88 4.144-24.824 14.584c0 0-.001 30.164 24.824 42.758z" style="fill-rule:evenodd;clip-rule:evenodd;fill:#3e3a39;stroke:#231815;stroke-width:2.083;stroke-linecap:round;stroke-linejoin:round;stroke-miterlimit:10"/><path clip-rule="evenodd" d="m32.117 61.004c24.825-12.594 24.825-42.758 24.825-42.758-8.944-10.44-24.825-14.584-24.825-14.584s-15.88 4.144-24.824 14.584c0 0-.001 30.164 24.824 42.758z" fill="url(#a)" fill-rule="evenodd"/><path d="m12.666 20.45c.395 5.441 2.958 24.9 19.452 34.487 16.573-9.623 19.08-29.04 19.457-34.483-6.447-6.705-16.311-10.153-19.453-11.126-3.139.977-13.03 4.449-19.456 11.122z" fill="#009de6"/><path d="m32.117 56.744-.784-.456c-17.083-9.929-19.8-29.854-20.225-35.726l-.051-.694.483-.502c6.726-6.983 17.098-10.591 20.117-11.529l.463-.144.462.143c3.016.933 13.373 4.521 20.117 11.536l.48.499-.048.691c-.404 5.86-3.062 25.757-20.229 35.726z" fill="#595757" stroke="#fff" stroke-miterlimit="10" stroke-width="1.0415"/><path d="m32.117 56.744-.784-.456c-17.083-9.929-19.8-29.854-20.225-35.726l-.051-.694.483-.502c6.726-6.983 17.098-10.591 20.117-11.529l.463-.144.462.143c3.016.933 13.373 4.521 20.117 11.536l.48.499-.048.691c-.404 5.86-3.062 25.757-20.229 35.726z" fill="url(#b)"/><path d="m14.29 21.426c.362 4.987 2.712 22.822 17.829 31.605 15.188-8.816 17.486-26.613 17.831-31.601-5.908-6.146-14.948-9.306-17.828-10.196-2.877.894-11.942 4.077-17.832 10.192z" fill="#e75513" stroke="#3e3a39" stroke-miterlimit="10" stroke-width="4.166"/><path d="m14.29 21.426c.362 4.987 2.712 22.822 17.829 31.605 15.188-8.816 17.486-26.613 17.831-31.601-5.908-6.146-14.948-9.306-17.828-10.196-2.877.894-11.942 4.077-17.832 10.192z" fill="url(#d)"/><path d="m32.119 54.236-.523-.305c-15.489-8.999-17.957-27.098-18.344-32.431l-.034-.463.322-.335c6.1-6.333 15.528-9.611 18.272-10.465l.309-.096.309.095c2.739.849 12.153 4.107 18.271 10.471l.32.332-.031.461c-.368 5.323-2.779 23.393-18.349 32.432z" fill="url(#e)"/><path d="m32.43 10.237-.309-.095-.061.019v44.041l.059.034.522-.304c15.569-9.039 17.98-27.108 18.349-32.432l.031-.461-.32-.332c-6.118-6.362-15.532-9.621-18.271-10.47z" fill="url(#g)"/><path d="m14.29 21.426c.362 4.987 2.712 22.822 17.829 31.605 15.188-8.816 17.486-26.613 17.831-31.601-5.908-6.146-14.948-9.306-17.828-10.196-2.877.894-11.942 4.077-17.832 10.192z" fill="url(#h)"/><path d="m32.135 53.021c15.173-8.82 17.471-26.605 17.815-31.592-5.9-6.137-14.923-9.297-17.815-10.192z" fill="url(#i)"/><path d="m32.119 53.031c-15.175-8.82-17.472-26.604-17.817-31.592 5.9-6.137 14.923-9.296 17.817-10.192z" fill="url(#j)"/><path d="m32.327 11.247v41.784" style="fill:none;stroke:#036eb5;stroke-width:.5208;stroke-linecap:round;stroke-linejoin:round;stroke-miterlimit:10"/></svg>